<svg width="33" height="33" viewBox="0 0 33 33" fill="none" xmlns="http://www.w3.org/2000/svg">
  <path d="M16.0678 16.9261C14.0215 14.7145 12.0651 13.233 10.0689 12.2496V32.592C10.0689 32.8159 9.88687 32.9979 9.66298 32.9979H3.53432C3.30834 32.9979 3.12839 32.8159 3.12839 32.592V10.4962C2.26632 10.4313 1.37705 10.402 0.450112 10.3957C0.201115 10.3957 0.000244141 10.1928 0.000244141 9.94378V3.518C0.000244141 3.10998 0.129973 2.90283 0.563102 2.90283H0.586118C0.630059 2.90283 0.671907 2.90492 0.713755 2.90702C0.747233 2.90702 0.780712 2.90702 0.816283 2.9112C0.881147 2.91539 0.94392 2.91748 1.00669 2.92166C1.04854 2.92166 1.0883 2.92585 1.12805 2.93003C1.16781 2.93213 1.20756 2.93422 1.24732 2.9384H1.2536C1.31009 2.94259 1.36659 2.94677 1.42727 2.95305C1.54653 2.96142 1.6658 2.96979 1.78297 2.98444C1.84156 2.99071 1.90224 2.9949 1.96292 3.00118C2.08219 3.01582 2.20146 3.02838 2.31654 3.04302C2.59274 3.07859 2.86475 3.12044 3.13048 3.16857V1.26448C3.13048 1.05314 3.2916 0.879475 3.49666 0.858551C3.50503 0.858551 3.5134 0.858551 3.51967 0.858551C3.52595 0.858551 3.53223 0.858551 3.5385 0.858551H9.66298C9.66298 0.858551 9.67553 0.858551 9.67972 0.858551C9.68809 0.858551 9.69646 0.858551 9.70692 0.858551C9.89942 0.879475 10.0522 1.03222 10.071 1.22472C10.071 1.23309 10.071 1.23937 10.071 1.24774V6.44318C13.2368 9.15704 14.827 12.7957 15.5489 14.9949C15.9318 16.1645 16.072 16.9282 16.072 16.9282L16.0678 16.9261Z" fill="black"/>
  <path d="M32.1396 23.9148V30.4975C32.1396 30.5268 32.1375 30.5561 32.1312 30.5854C32.1312 30.5916 32.1291 30.5979 32.1271 30.6042C32.0789 30.8092 31.8927 30.9599 31.6709 30.9557C31.4177 30.9494 31.1687 30.939 30.9239 30.9222H30.9197C30.4343 30.8909 29.9656 30.8406 29.5115 30.7716C29.5095 30.7716 29.5074 30.7716 29.5032 30.7716C29.3358 30.7486 29.1726 30.7193 29.0115 30.6921V32.6108C29.0115 32.6213 29.0115 32.6338 29.0094 32.6443C29.0094 32.6568 29.0073 32.6694 29.0052 32.682C29.0031 32.6924 29.001 32.705 28.9968 32.7154C28.9487 32.8786 28.7959 33 28.6139 33H22.4664C22.3011 33 22.1588 32.8996 22.1002 32.7573C22.094 32.7468 22.0898 32.7343 22.0856 32.7217C22.0793 32.7008 22.0751 32.6799 22.073 32.6568C22.073 32.6548 22.073 32.6527 22.073 32.6485C22.073 32.6338 22.071 32.6213 22.071 32.6087C22.071 32.6066 22.071 32.6045 22.071 32.6003V27.4112C17.2208 23.2536 16.072 16.9261 16.072 16.9261C17.1747 18.1146 18.2481 19.0939 19.3173 19.8974C20.2359 20.5878 21.1482 21.1486 22.071 21.6048V1.25191C22.071 1.23727 22.071 1.22053 22.0751 1.20588C22.0751 1.19542 22.0772 1.18286 22.0793 1.1724C22.0793 1.16194 22.0835 1.15148 22.0877 1.13892C22.0919 1.12428 22.0982 1.10963 22.1044 1.09289C22.1086 1.08243 22.1149 1.06987 22.1212 1.05941C22.1295 1.04267 22.14 1.02593 22.1505 1.01129C22.1735 0.981994 22.2007 0.956885 22.23 0.931776C22.2467 0.921314 22.2635 0.910852 22.2781 0.902482C22.2886 0.896205 22.3011 0.89202 22.3116 0.885743C22.3262 0.879466 22.3409 0.873188 22.3576 0.869004C22.3681 0.864819 22.3785 0.862726 22.3911 0.860634C22.4016 0.858542 22.4141 0.856449 22.4246 0.856449C22.4392 0.854357 22.456 0.852264 22.4706 0.852264H28.6181C28.6181 0.852264 28.6223 0.852264 28.6265 0.852264C28.6411 0.852264 28.6537 0.852264 28.6662 0.854357C28.6683 0.854357 28.6704 0.854357 28.6746 0.854357C28.6955 0.854357 28.7164 0.860634 28.7394 0.866911C28.7541 0.871096 28.7667 0.875281 28.7792 0.881558C28.8127 0.896205 28.842 0.912944 28.8692 0.935961C28.9089 0.969439 28.9424 1.00919 28.9696 1.05314C28.9864 1.08452 28.9989 1.118 29.0073 1.15148C29.0115 1.16822 29.0156 1.18705 29.0156 1.20588C29.0177 1.21634 29.0177 1.2289 29.0177 1.24145V23.3519C29.8714 23.4168 30.7523 23.4461 31.6688 23.4523H31.6918C31.6918 23.4523 31.7023 23.4523 31.7065 23.4523C31.7232 23.4523 31.7379 23.4544 31.7525 23.4565C31.763 23.4586 31.7755 23.4607 31.786 23.4628C31.8006 23.467 31.8132 23.4691 31.8257 23.4733C31.8446 23.4795 31.8634 23.4879 31.8802 23.4942C31.899 23.5026 31.9178 23.513 31.9346 23.5256C31.945 23.5319 31.9576 23.5402 31.968 23.5507C31.9764 23.5549 31.9848 23.5612 31.9911 23.5695C32.0371 23.6093 32.0727 23.6574 32.0978 23.7118C32.1019 23.7181 32.104 23.7244 32.1061 23.7306C32.1292 23.785 32.1417 23.8436 32.1417 23.9064L32.1396 23.9148Z" fill="black"/>
</svg>
